<svg width="162" height="77" viewBox="0 0 162 77" fill="none" xmlns="http://www.w3.org/2000/svg">
<path d="M42.0607 39.9069L17.5 57.5733V19.2242L42.0607 39.9069Z" stroke="white" stroke-width="3"/>
<path d="M49.5 28.5L56 52L69 47.5L62 24.5" stroke="white" stroke-width="3"/>
<path d="M74 54.5L85 22L92 54.5C92 54.5 79.3077 40.5 86 40C92.6923 39.5 74 54.5 74 54.5Z" stroke="white" stroke-width="2"/>
<path d="M97 21.9984C97 48.3984 110.333 54.665 117 54.4984" stroke="white" stroke-width="3"/>
<path d="M122 19.8106C126.4 19.8106 139.833 19.8106 146 19.8106C131.328 32.4079 125.157 39.3567 122 51.3106C130.536 53.3673 132.5 62.3106 146 51.3106" stroke="white" stroke-width="3"/>
</svg>
